<svg width="2592" height="1523" viewBox="0 0 2592 1523" fill="none" xmlns="http://www.w3.org/2000/svg">
<path d="M982.801 826C983.174 841.68 984.294 852.88 986.161 859.6C988.401 865.947 991.201 869.12 994.561 869.12C997.921 869.12 1001.65 866.693 1005.76 861.84C1009.87 856.613 1014.35 850.267 1019.2 842.8C1026.29 829.733 1033.95 815.36 1042.16 799.68C1050.75 784 1059.15 767.947 1067.36 751.52C1075.95 735.093 1084.16 719.04 1092 703.36C1100.21 687.307 1107.49 672.56 1113.84 659.12C1116.08 658 1118.32 657.44 1120.56 657.44C1123.17 657.44 1125.6 658 1127.84 659.12C1130.08 659.867 1131.76 661.173 1132.88 663.04C1134.37 664.907 1134.93 667.147 1134.56 669.76C1128.96 682.08 1122.43 696.08 1114.96 711.76C1107.87 727.44 1100.21 743.68 1092 760.48C1083.79 777.28 1075.2 794.453 1066.24 812C1057.65 829.173 1049.07 845.6 1040.48 861.28C1031.52 878.08 1022.93 893.2 1014.72 906.64C1006.88 919.707 997.547 930.347 986.721 938.56C968.427 953.12 951.254 952.56 935.201 936.88C922.134 923.067 912.801 907.013 907.201 888.72C901.601 870.053 898.054 851.76 896.561 833.84C894.321 808.827 893.574 780.827 894.321 749.84C895.067 718.48 896.934 686 899.921 652.4C902.907 618.427 906.641 584.267 911.121 549.92C915.601 515.573 920.454 482.907 925.681 451.92C930.907 420.56 936.134 392.187 941.361 366.8C946.587 341.04 951.441 319.76 955.921 302.96C918.214 294.373 881.441 282.987 845.601 268.8C809.387 254.24 773.361 238.933 737.521 222.88C701.681 206.453 665.654 190.213 629.441 174.16C593.227 158.107 556.267 143.92 518.561 131.6C480.854 119.28 442.027 109.947 402.081 103.6C362.134 97.2532 320.507 95.7599 277.201 99.1199C256.294 100.987 236.881 105.093 218.961 111.44C200.667 117.787 184.241 127.12 169.68 139.44C155.121 151.387 142.614 166.693 132.161 185.36C121.707 204.027 114.054 226.427 109.201 252.56C105.841 264.133 103.787 275.52 103.041 286.72C102.294 297.547 100.801 306.693 98.5605 314.16C95.9472 321.627 91.4672 326.853 85.1205 329.84C78.7738 332.453 68.3205 331.147 53.7605 325.92C38.4538 320.32 26.8805 311.547 19.0405 299.6C10.8272 287.653 5.6005 274.027 3.36053 258.72C1.12052 243.04 1.30717 226.427 3.92049 208.88C6.53381 191.333 11.0138 174.347 17.3605 157.92C23.3339 141.12 30.8005 125.44 39.7605 110.88C48.3472 96.3199 57.8672 84.1866 68.3205 74.4799C84.0005 59.9199 101.361 47.7865 120.401 38.0798C139.441 28.3732 159.414 20.7199 180.321 15.1198C201.227 9.14654 222.507 5.22656 244.161 3.3599C265.814 1.11988 287.094 0.559876 308.001 1.67988C339.734 2.79989 372.587 7.65323 406.561 16.2399C440.161 24.8266 473.947 35.4665 507.921 48.1599C541.521 60.8532 574.747 74.8532 607.601 90.1599C640.454 105.467 671.814 120.4 701.681 134.96C737.894 152.88 769.254 168.747 795.761 182.56C822.267 196.373 845.787 208.507 866.321 218.96C886.481 229.413 904.401 238.56 920.081 246.4C936.134 253.867 951.814 260.4 967.121 266C971.601 250.32 977.761 236.32 985.601 224C993.441 211.68 1002.21 201.227 1011.92 192.64C1022 184.053 1032.83 177.52 1044.4 173.04C1055.97 168.56 1067.92 166.32 1080.24 166.32C1092.56 166.693 1105.63 168.373 1119.44 171.36C1133.63 174.347 1145.57 179.76 1155.28 187.6C1163.12 194.32 1168.91 203.84 1172.64 216.16C1176.37 228.48 1177.87 241.173 1177.12 254.24C1176.37 267.307 1173.01 279.627 1167.04 291.2C1161.44 302.4 1152.85 310.24 1141.28 314.72C1133.44 317.707 1125.04 320.133 1116.08 322C1107.49 323.867 1099.09 325.173 1090.88 325.92C1082.67 326.293 1075.01 326.107 1067.92 325.36C1060.83 324.613 1055.04 323.307 1050.56 321.44C1044.59 339.36 1038.61 361.013 1032.64 386.4C1027.04 411.413 1021.63 438.667 1016.4 468.16C1011.17 497.653 1006.32 528.453 1001.84 560.56C997.361 592.667 993.627 624.4 990.641 655.76C987.654 687.12 985.414 717.547 983.921 747.04C982.427 776.16 982.054 802.48 982.801 826ZM1060.08 286.16C1069.79 292.88 1080.8 296.24 1093.12 296.24C1105.44 295.867 1116.08 293.067 1125.04 287.84C1134 282.613 1139.79 275.52 1142.4 266.56C1145.01 257.227 1141.47 246.96 1131.76 235.76C1127.28 230.533 1121.49 227.733 1114.4 227.36C1107.68 226.987 1100.77 228.853 1093.68 232.96C1086.59 237.067 1079.87 243.6 1073.52 252.56C1067.55 261.52 1063.07 272.72 1060.08 286.16ZM1516.37 586.32C1517.49 646.427 1518.42 699.627 1519.17 745.92C1519.91 791.84 1520.47 832.16 1520.85 866.88C1521.22 901.227 1521.41 930.533 1521.41 954.8C1521.41 978.693 1521.41 998.667 1521.41 1014.72C1521.41 1030.4 1521.41 1042.72 1521.41 1051.68C1521.41 1060.64 1521.41 1067.36 1521.41 1071.84C1548.66 1067.73 1577.41 1066.99 1607.65 1069.6C1638.26 1072.21 1669.81 1076.88 1702.29 1083.6C1735.14 1090.69 1768.55 1099.09 1802.53 1108.8C1836.87 1118.88 1871.59 1128.77 1906.69 1138.48C1941.78 1148.56 1976.87 1158.08 2011.97 1167.04C2047.43 1176 2082.53 1182.91 2117.25 1187.76C2152.34 1192.99 2186.69 1195.6 2220.29 1195.6C2254.26 1195.6 2287.3 1191.68 2319.41 1183.84C2339.57 1178.99 2358.05 1172.08 2374.85 1163.12C2392.02 1154.16 2406.77 1142.59 2419.09 1128.4C2431.78 1114.21 2441.86 1097.04 2449.33 1076.88C2456.79 1056.72 2460.9 1033.2 2461.65 1006.32C2463.14 994.747 2463.51 983.36 2462.77 972.16C2462.02 960.96 2462.21 951.44 2463.33 943.6C2464.82 935.76 2468.37 929.973 2473.97 926.24C2479.94 922.507 2490.39 922.133 2505.33 925.12C2519.14 928.107 2530.71 934.08 2540.05 943.04C2549.38 951.627 2556.47 962.267 2561.33 974.96C2566.55 987.28 2569.91 1001.09 2571.41 1016.4C2572.9 1031.71 2572.9 1047.2 2571.41 1062.88C2567.3 1102.08 2555.91 1135.49 2537.25 1163.12C2518.95 1191.12 2495.81 1214.08 2467.81 1232C2439.81 1249.92 2408.45 1263.36 2373.73 1272.32C2339.01 1281.65 2303.17 1287.25 2266.21 1289.12C2229.62 1291.36 2193.22 1290.43 2157.01 1286.32C2121.17 1282.21 2088.13 1275.87 2057.89 1267.28C2025.41 1258.32 1992.55 1247.87 1959.33 1235.92C1926.47 1224.35 1893.81 1212.4 1861.33 1200.08C1829.22 1187.76 1797.49 1175.63 1766.13 1163.68C1735.14 1151.73 1705.09 1141.28 1675.97 1132.32C1646.85 1123.36 1619.03 1116.27 1592.53 1111.04C1566.39 1106.19 1542.13 1104.32 1519.73 1105.44C1518.61 1126.35 1517.11 1148.37 1515.25 1171.52C1513.38 1195.04 1510.77 1218.75 1507.41 1242.64C1504.42 1266.53 1500.31 1290.24 1495.09 1313.76C1490.23 1337.65 1483.89 1360.24 1476.05 1381.52C1468.58 1402.8 1459.43 1422.21 1448.61 1439.76C1438.15 1457.68 1425.65 1472.8 1411.09 1485.12C1387.19 1505.28 1364.79 1516.48 1343.89 1518.72C1323.35 1520.96 1305.62 1517.23 1290.69 1507.52C1275.01 1497.44 1263.43 1482.51 1255.97 1462.72C1248.87 1443.31 1244.58 1422.21 1243.09 1399.44C1240.47 1352.77 1246.45 1309.65 1261.01 1270.08C1275.57 1230.88 1296.85 1195.41 1324.85 1163.68C1336.79 1150.61 1349.49 1138.85 1362.93 1128.4C1376.37 1117.95 1390.93 1108.24 1406.61 1099.28C1406.98 1042.16 1407.54 987.84 1408.29 936.32C1409.03 884.427 1409.03 832.907 1408.29 781.76C1402.69 793.707 1396.15 808.08 1388.69 824.88C1381.22 841.307 1372.45 857.92 1362.37 874.72C1355.65 885.547 1348.37 896 1340.53 906.08C1333.06 915.787 1324.85 924.373 1315.89 931.84C1306.93 938.933 1297.22 944.533 1286.77 948.64C1276.31 952.747 1264.93 954.427 1252.61 953.68C1244.02 953.307 1235.81 950.693 1227.97 945.84C1220.13 940.613 1212.85 933.707 1206.13 925.12C1199.78 916.16 1194.37 905.52 1189.89 893.2C1185.41 880.88 1182.23 867.067 1180.37 851.76C1178.13 823.76 1177.75 796.133 1179.25 768.88C1180.74 741.627 1182.79 714.56 1185.41 687.68C1187.65 660.8 1190.07 634.107 1192.69 607.6C1195.3 580.72 1196.61 553.84 1196.61 526.96C1203.7 521.36 1212.66 518.373 1223.49 518C1234.31 517.627 1244.95 519.68 1255.41 524.16C1266.23 528.267 1275.75 534.8 1283.97 543.76C1292.18 552.72 1297.22 563.92 1299.09 577.36C1296.47 598.64 1293.49 621.413 1290.13 645.68C1287.14 669.573 1284.71 694.027 1282.85 719.04C1282.47 722.773 1281.91 730.053 1281.17 740.88C1280.79 751.333 1280.61 763.28 1280.61 776.72C1280.61 789.787 1280.98 803.6 1281.73 818.16C1282.47 832.347 1283.78 845.227 1285.65 856.8C1287.51 868.373 1290.13 877.52 1293.49 884.24C1297.22 890.96 1301.89 893.387 1307.49 891.52C1316.45 887.787 1328.58 873.227 1343.89 847.84C1351.35 835.147 1360.13 818.533 1370.21 798C1380.66 777.467 1392.42 750.773 1405.49 717.92C1408.47 688.8 1410.34 662.48 1411.09 638.96C1411.83 615.067 1412.58 595.653 1413.33 580.72C1413.33 576.987 1413.14 573.44 1412.77 570.08C1412.77 566.347 1412.77 562.613 1412.77 558.88C1419.49 552.533 1428.26 547.867 1439.09 544.88C1449.91 541.893 1460.55 541.147 1471.01 542.64C1481.83 544.133 1491.54 548.427 1500.13 555.52C1508.71 562.24 1514.13 572.507 1516.37 586.32ZM1408.29 1140.16C1398.95 1144.27 1389.25 1149.68 1379.17 1156.4C1369.46 1163.49 1359.75 1172.27 1350.05 1182.72C1322.05 1212.96 1302.07 1245.81 1290.13 1281.28C1278.18 1316.75 1273.51 1354.27 1276.13 1393.84C1277.25 1408.03 1280.42 1420.35 1285.65 1430.8C1291.25 1441.25 1299.09 1447.23 1309.17 1448.72C1316.63 1449.84 1324.85 1447.97 1333.81 1443.12C1342.77 1438.64 1350.61 1432.11 1357.33 1423.52C1366.29 1411.95 1373.38 1397.2 1378.61 1379.28C1384.21 1361.36 1388.69 1340.45 1392.05 1316.56C1395.41 1293.04 1398.21 1266.53 1400.45 1237.04C1402.69 1207.55 1405.3 1175.25 1408.29 1140.16Z" fill="url(#paint0_linear_664_320)"/>
<path d="M322.161 734.12C307.761 735.453 292.961 735.053 277.761 732.92C262.827 730.787 247.761 727.053 232.561 721.72C214.161 715.587 196.427 707.853 179.361 698.52C162.561 688.92 146.961 678.387 132.561 666.92C119.761 655.987 110.294 647.187 104.161 640.52C99.6272 633.32 97.4939 627.053 97.7605 621.72C98.0272 616.387 99.7605 612.387 102.961 609.72C105.894 606.787 109.894 605.453 114.961 605.72C119.761 605.987 124.694 608.253 129.761 612.52C134.294 616.253 138.694 619.987 142.961 623.72C147.227 627.453 151.494 631.187 155.761 634.92C169.361 646.12 182.694 656.387 195.761 665.72C208.827 675.053 222.961 682.653 238.161 688.52C251.761 693.853 265.761 697.32 280.161 698.92C294.561 700.52 310.161 699.32 326.961 695.32C327.494 687.853 327.894 680.387 328.161 672.92C328.694 665.453 329.227 657.853 329.761 650.12C331.361 622.92 333.227 596.387 335.361 570.52C337.761 544.653 340.827 520.253 344.561 497.32C348.561 474.12 353.627 452.787 359.761 433.32C365.894 413.853 373.761 397.053 383.361 382.92C392.961 368.787 404.427 357.853 417.761 350.12C431.361 342.12 447.361 338.12 465.761 338.12C467.094 338.12 470.161 338.92 474.961 340.52C479.761 342.12 485.094 344.253 490.961 346.92C497.094 349.587 503.361 352.653 509.761 356.12C516.161 359.587 521.627 363.053 526.161 366.52C528.294 367.853 530.827 370.12 533.761 373.32L542.161 380.92C549.894 389.187 555.361 400.653 558.561 415.32C561.761 429.987 563.361 447.453 563.361 467.72C563.361 484.52 561.627 501.187 558.161 517.72C554.961 534.253 550.561 550.253 544.961 565.72C539.361 581.187 532.694 595.853 524.961 609.72C517.227 623.587 508.961 636.387 500.161 648.12C491.627 659.853 482.561 670.253 472.961 679.32C463.627 688.12 454.427 695.187 445.361 700.52L431.761 708.52C431.494 711.453 428.827 726.12 423.761 752.52C418.961 778.653 411.894 817.72 402.561 869.72L406.961 870.52C413.627 872.12 420.161 873.853 426.561 875.72C432.961 877.32 439.494 879.187 446.161 881.32C476.827 890.92 507.227 901.987 537.361 914.52C567.761 927.053 598.294 940.12 628.961 953.72C645.227 960.653 664.827 968.787 687.761 978.12C710.694 987.453 735.627 996.653 762.561 1005.72C789.494 1015.05 817.494 1023.59 846.561 1031.32C875.894 1039.05 904.961 1044.65 933.761 1048.12C962.561 1051.59 990.294 1052.25 1016.96 1050.12C1043.63 1048.25 1067.89 1042.25 1089.76 1032.12C1111.63 1021.99 1130.29 1007.05 1145.76 987.32C1161.23 967.587 1172.03 941.853 1178.16 910.12C1181.36 899.72 1183.36 889.587 1184.16 879.72C1185.23 869.587 1186.96 861.053 1189.36 854.12C1192.03 846.92 1196.43 842.12 1202.56 839.72C1208.69 837.053 1218.69 838.12 1232.56 842.92C1247.23 848.253 1258.56 856.52 1266.56 867.72C1274.56 878.653 1279.76 891.187 1282.16 905.32C1284.56 919.453 1284.43 934.52 1281.76 950.52C1279.36 966.253 1275.09 981.72 1268.96 996.92C1263.09 1012.39 1255.76 1026.79 1246.96 1040.12C1238.16 1053.45 1228.56 1064.52 1218.16 1073.32C1202.96 1086.65 1186.03 1097.72 1167.36 1106.52C1148.69 1115.59 1129.09 1122.65 1108.56 1127.72C1088.29 1133.05 1067.49 1136.65 1046.16 1138.52C1024.83 1140.39 1003.89 1140.92 983.361 1140.12C952.161 1139.05 920.027 1134.52 886.961 1126.52C853.894 1118.79 820.827 1109.05 787.761 1097.32C754.694 1085.85 722.027 1073.05 689.761 1058.92C657.494 1045.05 626.827 1031.45 597.761 1018.12C577.494 1008.79 557.494 999.587 537.761 990.52C518.294 981.72 498.961 972.787 479.761 963.72C441.627 945.853 407.627 930.653 377.761 918.12C371.361 932.52 363.227 945.72 353.361 957.72C343.494 969.453 332.294 979.587 319.761 988.12C307.494 996.653 294.161 1003.19 279.761 1007.72C265.627 1012.52 250.961 1014.92 235.761 1014.92C214.427 1014.92 197.094 1010.25 183.761 1000.92C170.427 991.853 161.227 980.653 156.161 967.32C151.094 953.987 150.161 939.987 153.361 925.32C156.827 910.387 164.561 897.32 176.561 886.12C184.561 878.653 193.494 873.053 203.361 869.32C213.494 865.32 224.161 862.52 235.361 860.92C246.827 859.053 258.694 858.12 270.961 858.12C283.494 857.853 296.027 857.72 308.561 857.72C310.427 855.587 312.027 850.92 313.361 843.72C314.694 836.52 315.894 828.12 316.961 818.52C318.027 808.92 318.827 798.92 319.361 788.52C320.161 778.12 320.694 768.653 320.961 760.12C321.494 751.587 321.761 744.92 321.761 740.12C322.027 735.053 322.161 733.053 322.161 734.12ZM489.761 441.72C478.294 465.987 468.827 492.653 461.361 521.72C453.894 550.787 447.761 583.32 442.961 619.32C441.094 631.853 439.494 644.52 438.161 657.32C454.961 644.52 469.227 630.12 480.961 614.12C492.961 597.853 502.561 580.653 509.761 562.52C517.227 544.387 522.561 525.587 525.761 506.12C529.227 486.387 530.961 466.52 530.961 446.52C530.961 436.12 529.894 426.653 527.761 418.12C525.894 409.587 523.761 401.987 521.361 395.32C508.827 408.12 498.294 423.587 489.761 441.72ZM217.361 938.52C236.561 938.52 252.294 934.253 264.561 925.72C276.827 917.187 286.961 905.72 294.961 891.32C287.761 889.187 280.427 887.32 272.961 885.72C265.494 883.853 258.027 882.787 250.561 882.52C243.094 881.987 235.627 882.387 228.161 883.72C220.694 885.053 213.361 887.853 206.161 892.12C198.961 896.12 193.094 900.787 188.561 906.12C184.027 911.453 181.761 916.52 181.761 921.32C181.761 926.12 184.427 930.253 189.761 933.72C195.361 936.92 204.561 938.52 217.361 938.52ZM651.311 724.52C651.577 717.32 652.244 709.853 653.311 702.12C654.377 694.12 655.444 685.187 656.511 675.32C657.844 665.453 658.911 654.52 659.711 642.52C660.777 630.253 661.311 616.12 661.311 600.12C666.111 596.387 671.977 594.387 678.911 594.12C686.111 593.853 693.177 595.187 700.111 598.12C707.044 601.053 713.177 605.587 718.511 611.72C723.844 617.587 727.177 625.053 728.511 634.12C726.911 648.787 725.044 664.653 722.911 681.72C720.777 698.787 718.911 716.12 717.311 733.72C715.977 751.32 715.311 768.653 715.311 785.72C715.577 802.787 717.177 818.653 720.111 833.32C722.511 839.187 725.577 840.387 729.311 836.92C733.311 833.453 737.844 827.853 742.911 820.12C747.977 810.787 753.444 800.52 759.311 789.32C765.444 778.12 771.444 766.653 777.311 754.92C783.444 743.187 789.311 731.72 794.911 720.52C800.777 709.053 805.977 698.52 810.511 688.92C812.111 688.12 813.711 687.72 815.311 687.72C817.177 687.72 818.911 688.12 820.511 688.92C822.111 689.453 823.311 690.387 824.111 691.72C825.177 693.053 825.577 694.653 825.311 696.52C821.311 705.32 816.644 715.32 811.311 726.52C806.244 737.72 800.777 749.32 794.911 761.32C789.044 773.32 782.911 785.587 776.511 798.12C770.377 810.387 764.244 822.12 758.111 833.32C751.711 845.32 745.577 856.12 739.711 865.72C734.111 875.053 727.444 882.653 719.711 888.52C706.644 898.92 694.377 898.52 682.911 887.32C674.377 877.72 667.844 865.987 663.311 852.12C658.777 838.253 655.577 823.853 653.711 808.92C651.577 793.72 650.511 778.787 650.511 764.12C650.511 749.187 650.777 735.987 651.311 724.52ZM728.111 500.12C730.244 505.987 730.377 511.72 728.511 517.32C726.911 522.92 724.111 527.853 720.111 532.12C716.111 536.387 711.311 539.72 705.711 542.12C700.111 544.253 694.511 544.92 688.911 544.12C683.577 543.053 678.644 540.253 674.111 535.72C669.577 530.92 666.244 523.72 664.111 514.12C660.111 495.72 658.911 482.12 660.511 473.32C662.377 464.253 665.711 458.387 670.511 455.72C674.777 453.32 679.711 453.053 685.311 454.92C691.177 456.787 696.911 459.987 702.511 464.52C708.111 469.053 713.177 474.52 717.711 480.92C722.511 487.053 725.977 493.453 728.111 500.12Z" fill="url(#paint1_linear_664_320)"/>
<path fill-rule="evenodd" clip-rule="evenodd" d="M721.912 424.109C783.244 352.914 843.097 458.224 751.469 475.281C843.097 493.08 782.505 597.648 721.912 526.452C752.947 615.446 632.5 614.705 663.536 526.452C602.204 597.648 542.35 493.08 633.978 475.281C541.611 458.224 602.204 353.656 663.536 424.109C631.761 335.857 752.947 335.857 721.912 424.109ZM692.354 461.932C699.744 461.932 706.394 467.865 706.394 475.281C706.394 482.697 699.744 489.372 692.354 489.372C684.965 489.372 679.053 482.697 679.053 475.281C679.053 467.865 684.965 461.932 692.354 461.932Z" fill="url(#paint2_linear_664_320)"/>
<path d="M2241.96 97.1699C2252.16 98.3699 2258.16 105.72 2259.96 119.22C2262.06 132.42 2261.76 149.37 2259.06 170.07C2252.76 224.37 2247.36 276.42 2242.86 326.22C2238.36 376.02 2235.36 424.17 2233.86 470.67C2232.36 517.17 2232.36 562.32 2233.86 606.12C2235.66 649.92 2239.71 693.27 2246.01 736.17C2252.31 778.77 2261.01 821.22 2272.11 863.52C2283.21 905.82 2297.31 948.57 2314.41 991.77C2313.81 996.87 2312.46 1000.77 2310.36 1003.47C2308.56 1006.17 2306.31 1008.12 2303.61 1009.32C2300.91 1010.82 2298.06 1011.57 2295.06 1011.57C2292.36 1011.87 2289.66 1011.87 2286.96 1011.57C2267.46 1008.87 2249.01 997.77 2231.61 978.27C2214.51 959.07 2198.61 933.72 2183.91 902.22C2169.21 871.02 2155.86 835.17 2143.86 794.67C2132.16 753.87 2122.11 710.82 2113.71 665.52C2102.91 667.92 2091.21 670.02 2078.61 671.82C2066.01 673.32 2052.96 674.52 2039.46 675.42C2032.26 703.92 2024.46 731.37 2016.06 757.77C2007.66 783.87 1998.81 808.17 1989.51 830.67C1980.21 853.17 1970.46 873.27 1960.26 890.97C1950.06 908.67 1939.41 923.22 1928.31 934.62C1918.71 943.32 1909.56 948.27 1900.86 949.47C1892.16 950.67 1884.66 949.32 1878.36 945.42C1872.36 941.52 1867.71 935.82 1864.41 928.32C1861.41 920.82 1860.51 912.72 1861.71 904.02C1874.01 893.22 1885.71 879.87 1896.81 863.97C1907.91 848.07 1918.26 830.37 1927.86 810.87C1937.76 791.37 1946.91 770.22 1955.31 747.42C1964.01 724.62 1972.11 700.92 1979.61 676.32C1956.21 676.02 1932.06 674.67 1907.16 672.27C1882.56 669.87 1857.66 666.72 1832.46 662.82C1807.56 658.62 1782.66 653.52 1757.76 647.52C1733.16 641.52 1709.16 634.77 1685.76 627.27C1661.76 619.77 1639.11 611.52 1617.81 602.52C1596.21 593.22 1577.31 582.57 1561.11 570.57C1544.61 558.27 1531.41 544.32 1521.51 528.72C1511.31 512.82 1505.76 494.52 1504.86 473.82C1504.26 463.92 1505.76 455.67 1509.36 449.07C1512.66 442.47 1517.76 437.82 1524.66 435.12C1531.56 432.42 1540.26 432.12 1550.76 434.22C1560.96 436.02 1572.66 440.67 1585.86 448.17C1596.66 454.77 1607.76 461.52 1619.16 468.42C1630.56 475.02 1642.56 482.22 1655.16 490.02C1680.66 504.72 1707.21 518.52 1734.81 531.42C1762.71 544.32 1791.21 556.17 1820.31 566.97C1849.41 577.77 1878.81 587.37 1908.51 595.77C1938.21 603.87 1967.76 610.62 1997.16 616.02C2008.56 574.02 2018.91 531.57 2028.21 488.67C2037.81 445.77 2046.66 405.12 2054.76 366.72C2062.86 328.32 2070.51 293.52 2077.71 262.32C2084.91 230.82 2091.96 205.62 2098.86 186.72C2108.16 150.42 2124.81 125.22 2148.81 111.12C2172.81 97.0199 2203.86 92.3699 2241.96 97.1699ZM2108.31 629.97C2103.21 599.07 2098.86 568.32 2095.26 537.72C2091.96 506.82 2089.41 475.92 2087.61 445.02C2082.51 475.02 2076.96 505.02 2070.96 535.02C2064.96 565.02 2058.66 595.02 2052.06 625.02C2061.66 626.52 2071.11 627.57 2080.41 628.17C2089.71 628.77 2099.01 629.37 2108.31 629.97ZM2395.2 600.72C2395.5 592.62 2396.25 584.22 2397.45 575.52C2398.65 566.52 2399.85 556.47 2401.05 545.37C2402.55 534.27 2403.75 521.97 2404.65 508.47C2405.85 494.67 2406.45 478.77 2406.45 460.77C2411.85 456.57 2418.45 454.32 2426.25 454.02C2434.35 453.72 2442.3 455.22 2450.1 458.52C2457.9 461.82 2464.8 466.92 2470.8 473.82C2476.8 480.42 2480.55 488.82 2482.05 499.02C2480.25 515.52 2478.15 533.37 2475.75 552.57C2473.35 571.77 2471.25 591.27 2469.45 611.07C2467.95 630.87 2467.2 650.37 2467.2 669.57C2467.5 688.77 2469.3 706.62 2472.6 723.12C2475.3 729.72 2478.75 731.07 2482.95 727.17C2487.45 723.27 2492.55 716.97 2498.25 708.27C2503.95 697.77 2510.1 686.22 2516.7 673.62C2523.6 661.02 2530.35 648.12 2536.95 634.92C2543.85 621.72 2550.45 608.82 2556.75 596.22C2563.35 583.32 2569.2 571.47 2574.3 560.67C2576.1 559.77 2577.9 559.32 2579.7 559.32C2581.8 559.32 2583.75 559.77 2585.55 560.67C2587.35 561.27 2588.7 562.32 2589.6 563.82C2590.8 565.32 2591.25 567.12 2590.95 569.22C2586.45 579.12 2581.2 590.37 2575.2 602.97C2569.5 615.57 2563.35 628.62 2556.75 642.12C2550.15 655.62 2543.25 669.42 2536.05 683.52C2529.15 697.32 2522.25 710.52 2515.35 723.12C2508.15 736.62 2501.25 748.77 2494.65 759.57C2488.35 770.07 2480.85 778.62 2472.15 785.22C2457.45 796.92 2443.65 796.47 2430.75 783.87C2421.15 773.07 2413.8 759.87 2408.7 744.27C2403.6 728.67 2400 712.47 2397.9 695.67C2395.5 678.57 2394.3 661.77 2394.3 645.27C2394.3 628.47 2394.6 613.62 2395.2 600.72ZM2481.6 348.27C2484 354.87 2484.15 361.32 2482.05 367.62C2480.25 373.92 2477.1 379.47 2472.6 384.27C2468.1 389.07 2462.7 392.82 2456.4 395.52C2450.1 397.92 2443.8 398.67 2437.5 397.77C2431.5 396.57 2425.95 393.42 2420.85 388.32C2415.75 382.92 2412 374.82 2409.6 364.02C2405.1 343.32 2403.75 328.02 2405.55 318.12C2407.65 307.92 2411.4 301.32 2416.8 298.32C2421.6 295.62 2427.15 295.32 2433.45 297.42C2440.05 299.52 2446.5 303.12 2452.8 308.22C2459.1 313.32 2464.8 319.47 2469.9 326.67C2475.3 333.57 2479.2 340.77 2481.6 348.27Z" fill="url(#paint3_linear_664_320)"/>
<path d="M2555.3 313.069C2552.66 287.146 2530.72 266.92 2504.06 266.92C2482.68 266.92 2464.36 279.913 2456.56 298.414C2448.76 279.913 2430.44 266.92 2409.07 266.92C2382.4 266.92 2360.46 287.146 2357.83 313.069C2357.65 314.796 2357.56 316.551 2357.56 318.326C2357.56 380.784 2434.36 410.263 2456.56 451.92C2478.76 410.265 2555.56 380.786 2555.56 318.326C2555.56 316.551 2555.47 314.796 2555.3 313.069Z" fill="url(#paint4_linear_664_320)"/>
<defs>
<linearGradient id="paint0_linear_664_320" x1="1252.06" y1="657.92" x2="1252.06" y2="1169.92" gradientUnits="userSpaceOnUse">
<stop stop-color="#9A35F2"/>
<stop offset="1" stop-color="#F23591"/>
</linearGradient>
<linearGradient id="paint1_linear_664_320" x1="473.561" y1="687.92" x2="473.561" y2="1053.92" gradientUnits="userSpaceOnUse">
<stop stop-color="#F23591"/>
<stop offset="1" stop-color="#9A35F2"/>
</linearGradient>
<linearGradient id="paint2_linear_664_320" x1="692.561" y1="357.92" x2="692.561" y2="592.92" gradientUnits="userSpaceOnUse">
<stop stop-color="#FF1B1B"/>
<stop offset="1" stop-color="#9D0909"/>
</linearGradient>
<linearGradient id="paint3_linear_664_320" x1="2126.56" y1="278.42" x2="2126.06" y2="970.92" gradientUnits="userSpaceOnUse">
<stop stop-color="#F23591"/>
<stop offset="1" stop-color="#9A35F2"/>
</linearGradient>
<linearGradient id="paint4_linear_664_320" x1="2456.56" y1="266.92" x2="2456.56" y2="451.92" gradientUnits="userSpaceOnUse">
<stop stop-color="#FF1B1B"/>
<stop offset="1" stop-color="#991010"/>
</linearGradient>
</defs>
</svg>
